<svg width="434" height="68" viewBox="0 0 434 68" fill="none" xmlns="http://www.w3.org/2000/svg">
<g clip-path="url(#clip0_2_29)">
<path d="M50.4375 52.625C50.4375 53.9375 50.4062 55.2083 50.3438 56.4375C50.3021 57.6667 50.1146 58.8125 49.7812 59.875C49.4688 60.9375 48.9583 61.9062 48.25 62.7812C47.5417 63.6562 46.5417 64.4062 45.25 65.0312C43.9583 65.6562 42.3125 66.1458 40.3125 66.5C38.3125 66.8333 35.8542 67 32.9375 67H12V17.1562H33.2188C35.9271 17.1562 38.2083 17.3333 40.0625 17.6875C41.9167 18.0417 43.4375 18.5312 44.625 19.1562C45.8333 19.7812 46.7604 20.5104 47.4062 21.3438C48.0521 22.1771 48.5208 23.0625 48.8125 24C49.125 24.9375 49.3021 25.9167 49.3438 26.9375C49.4062 27.9375 49.4375 28.9167 49.4375 29.875C49.4375 31.2292 49.3125 32.3958 49.0625 33.375C48.8125 34.3333 48.4896 35.1562 48.0938 35.8438C47.6979 36.5104 47.2396 37.0625 46.7188 37.5C46.1979 37.9375 45.6771 38.3021 45.1562 38.5938C43.9062 39.2812 42.4896 39.6875 40.9062 39.8125C42.7396 39.9375 44.3646 40.3854 45.7812 41.1562C46.4062 41.4896 47 41.9167 47.5625 42.4375C48.125 42.9375 48.6146 43.625 49.0312 44.5C49.4688 45.375 49.8125 46.4688 50.0625 47.7812C50.3125 49.0729 50.4375 50.6875 50.4375 52.625ZM27.5312 59.5938H34.9062V43.5625H27.5312V59.5938ZM27.5312 36.3438H34.9062V24.5625H27.5312V36.3438ZM77.5938 67H62.0625V26.375H77.5938V67ZM77.5938 13.5625V20.9688H62.0625V13.5625H77.5938ZM90.0312 26.375C90.0312 23.9167 90.375 21.8333 91.0625 20.125C91.75 18.3958 92.7083 16.9896 93.9375 15.9062C95.1667 14.8229 96.625 14.0417 98.3125 13.5625C100.021 13.0625 101.885 12.8125 103.906 12.8125C105.49 12.8125 107.135 12.9583 108.844 13.25C110.573 13.5208 112.354 13.9062 114.188 14.4062V20.8438H105.562V26.375H114.438V32.6875H105.562V67H90.0312V32.6875H84.1875V26.375H90.0312ZM123.5 67V26.375H136.031L137.781 32.7812C137.99 31.7396 138.312 30.8229 138.75 30.0312C139.188 29.2396 139.688 28.5625 140.25 28C140.833 27.4167 141.458 26.9375 142.125 26.5625C142.792 26.1875 143.458 25.8958 144.125 25.6875C144.792 25.4583 145.438 25.3021 146.062 25.2188C146.688 25.1146 147.24 25.0521 147.719 25.0312V37.3438L139.031 39.8438V67H123.5ZM170.125 59.5938H177.5V33.875H170.125V59.5938ZM174 68.2188C170.875 68.2188 168.219 68.0312 166.031 67.6562C163.865 67.2812 162.062 66.7812 160.625 66.1562C159.188 65.5312 158.062 64.8021 157.25 63.9688C156.458 63.1354 155.865 62.2708 155.469 61.375C155.073 60.4792 154.823 59.5729 154.719 58.6562C154.635 57.7188 154.594 56.8333 154.594 56V37.25C154.594 36.4167 154.635 35.5417 154.719 34.625C154.823 33.6875 155.073 32.7708 155.469 31.875C155.865 30.9583 156.458 30.0938 157.25 29.2812C158.062 28.4479 159.188 27.7188 160.625 27.0938C162.062 26.4688 163.865 25.9688 166.031 25.5938C168.219 25.2188 170.875 25.0312 174 25.0312C177.104 25.0312 179.729 25.2188 181.875 25.5938C184.042 25.9688 185.823 26.4688 187.219 27.0938C188.635 27.7188 189.729 28.4479 190.5 29.2812C191.292 30.0938 191.875 30.9583 192.25 31.875C192.625 32.7708 192.844 33.6875 192.906 34.625C192.99 35.5417 193.031 36.4167 193.031 37.25V56C193.031 56.8333 192.99 57.7188 192.906 58.6562C192.844 59.5729 192.625 60.4792 192.25 61.375C191.875 62.2708 191.292 63.1354 190.5 63.9688C189.729 64.8021 188.635 65.5312 187.219 66.1562C185.823 66.7812 184.042 67.2812 181.875 67.6562C179.729 68.0312 177.104 68.2188 174 68.2188ZM223.062 53.125C222.896 52.9375 222.438 52.7917 221.688 52.6875C220.938 52.5833 220.01 52.4688 218.906 52.3438C217.802 52.1979 216.573 52.0208 215.219 51.8125C213.865 51.6042 212.49 51.3021 211.094 50.9062C209.698 50.5104 208.344 50 207.031 49.375C205.719 48.75 204.552 47.9583 203.531 47C202.51 46.0417 201.688 44.8958 201.062 43.5625C200.458 42.2292 200.156 40.6458 200.156 38.8125C200.156 37.4792 200.26 36.2188 200.469 35.0312C200.677 33.8229 201.042 32.7083 201.562 31.6875C202.104 30.6667 202.844 29.75 203.781 28.9375C204.719 28.1042 205.917 27.4062 207.375 26.8438C208.833 26.2604 210.583 25.8125 212.625 25.5C214.667 25.1875 217.073 25.0312 219.844 25.0312C222.615 25.0729 224.979 25.2292 226.938 25.5C228.896 25.7708 230.531 26.1354 231.844 26.5938C233.177 27.0521 234.229 27.6146 235 28.2812C235.792 28.9479 236.385 29.6979 236.781 30.5312C237.198 31.3646 237.458 32.2917 237.562 33.3125C237.688 34.3125 237.75 35.3854 237.75 36.5312V39.2188L223.062 38.2812V33.875H215.688V39.9062C215.875 40.0938 216.344 40.25 217.094 40.375C217.865 40.5 218.802 40.6458 219.906 40.8125C221.01 40.9583 222.24 41.1458 223.594 41.375C224.948 41.6042 226.312 41.9167 227.688 42.3125C229.083 42.7083 230.427 43.2083 231.719 43.8125C233.031 44.4167 234.198 45.1771 235.219 46.0938C236.24 47.0104 237.052 48.1042 237.656 49.375C238.281 50.6458 238.594 52.1354 238.594 53.8438C238.594 56.1979 238.323 58.2708 237.781 60.0625C237.26 61.8333 236.281 63.3229 234.844 64.5312C233.406 65.7188 231.417 66.6146 228.875 67.2188C226.333 67.8229 223.052 68.125 219.031 68.125C216.323 68.0625 213.99 67.8854 212.031 67.5938C210.094 67.3229 208.458 66.9479 207.125 66.4688C205.792 65.9896 204.729 65.4167 203.938 64.75C203.146 64.0625 202.542 63.3021 202.125 62.4688C201.708 61.6354 201.427 60.7188 201.281 59.7188C201.156 58.7188 201.094 57.6562 201.094 56.5312V54.0938L215.688 55.1875V59.5938H223.062V53.125ZM263.625 67H248.094V32.625H244.25V26.375H248.094V17.1562H263.625V26.375H268.75V32.625H263.625V67ZM289.312 67H275V52.4062H289.312V67ZM334.531 13.5625V67H321.688L320.25 61.7812C319.625 62.8229 318.865 63.75 317.969 64.5625C317.094 65.3542 316.125 66.0208 315.062 66.5625C314 67.0833 312.875 67.4792 311.688 67.75C310.5 68.0208 309.281 68.1562 308.031 68.1562C306.531 68.1562 305.062 67.8958 303.625 67.375C302.188 66.8542 300.906 66.0625 299.781 65C298.677 63.9167 297.781 62.5625 297.094 60.9375C296.427 59.3125 296.094 57.4062 296.094 55.2188V37.1562C296.094 35.0729 296.427 33.2708 297.094 31.75C297.76 30.2083 298.635 28.9375 299.719 27.9375C300.823 26.9375 302.073 26.1979 303.469 25.7188C304.885 25.2396 306.333 25 307.812 25C310.042 25 312.125 25.3854 314.062 26.1562C316.021 26.9271 317.667 28.0521 319 29.5312V13.5625H334.531ZM319 33.875H311.625V59.5938H319V33.875ZM381.5 52.9062C381.5 54.3854 381.448 55.7917 381.344 57.125C381.24 58.4375 380.979 59.6667 380.562 60.8125C380.167 61.9375 379.552 62.9479 378.719 63.8438C377.906 64.7396 376.781 65.5104 375.344 66.1562C373.927 66.7812 372.146 67.2604 370 67.5938C367.875 67.9479 365.281 68.125 362.219 68.125C359.094 68.125 356.448 67.9375 354.281 67.5625C352.135 67.1875 350.354 66.6875 348.938 66.0625C347.521 65.4375 346.417 64.7188 345.625 63.9062C344.833 63.0729 344.25 62.2083 343.875 61.3125C343.5 60.3958 343.271 59.4792 343.188 58.5625C343.125 57.6458 343.094 56.7708 343.094 55.9375V37.1875C343.094 36.3542 343.125 35.4792 343.188 34.5625C343.271 33.6458 343.5 32.7396 343.875 31.8438C344.25 30.9479 344.833 30.0938 345.625 29.2812C346.417 28.4479 347.521 27.7188 348.938 27.0938C350.354 26.4688 352.135 25.9688 354.281 25.5938C356.448 25.2188 359.094 25.0312 362.219 25.0312C365.26 25.0312 367.854 25.2188 370 25.5938C372.146 25.9688 373.927 26.4688 375.344 27.0938C376.781 27.7188 377.906 28.4479 378.719 29.2812C379.552 30.0938 380.177 30.9479 380.594 31.8438C381.01 32.7396 381.271 33.6562 381.375 34.5938C381.479 35.5104 381.531 36.375 381.531 37.1875V48.9062H358.625V59.5938H366V52.9375L381.5 52.9062ZM358.625 43.3438H366V33.875H358.625V43.3438ZM386.938 26.375H403.062L406.156 53.875L409.312 26.375H425.469L415.75 67H396.688L386.938 26.375Z" fill="#002200"/>
<path d="M44.4375 46.625C44.4375 47.9375 44.4062 49.2083 44.3438 50.4375C44.3021 51.6667 44.1146 52.8125 43.7812 53.875C43.4688 54.9375 42.9583 55.9062 42.25 56.7812C41.5417 57.6562 40.5417 58.4062 39.25 59.0312C37.9583 59.6562 36.3125 60.1458 34.3125 60.5C32.3125 60.8333 29.8542 61 26.9375 61H6V11.1562H27.2188C29.9271 11.1562 32.2083 11.3333 34.0625 11.6875C35.9167 12.0417 37.4375 12.5312 38.625 13.1562C39.8333 13.7812 40.7604 14.5104 41.4062 15.3438C42.0521 16.1771 42.5208 17.0625 42.8125 18C43.125 18.9375 43.3021 19.9167 43.3438 20.9375C43.4062 21.9375 43.4375 22.9167 43.4375 23.875C43.4375 25.2292 43.3125 26.3958 43.0625 27.375C42.8125 28.3333 42.4896 29.1562 42.0938 29.8438C41.6979 30.5104 41.2396 31.0625 40.7188 31.5C40.1979 31.9375 39.6771 32.3021 39.1562 32.5938C37.9062 33.2812 36.4896 33.6875 34.9062 33.8125C36.7396 33.9375 38.3646 34.3854 39.7812 35.1562C40.4062 35.4896 41 35.9167 41.5625 36.4375C42.125 36.9375 42.6146 37.625 43.0312 38.5C43.4688 39.375 43.8125 40.4688 44.0625 41.7812C44.3125 43.0729 44.4375 44.6875 44.4375 46.625ZM21.5312 53.5938H28.9062V37.5625H21.5312V53.5938ZM21.5312 30.3438H28.9062V18.5625H21.5312V30.3438ZM71.5938 61H56.0625V20.375H71.5938V61ZM71.5938 7.5625V14.9688H56.0625V7.5625H71.5938ZM84.0312 20.375C84.0312 17.9167 84.375 15.8333 85.0625 14.125C85.75 12.3958 86.7083 10.9896 87.9375 9.90625C89.1667 8.82292 90.625 8.04167 92.3125 7.5625C94.0208 7.0625 95.8854 6.8125 97.9062 6.8125C99.4896 6.8125 101.135 6.95833 102.844 7.25C104.573 7.52083 106.354 7.90625 108.188 8.40625V14.8438H99.5625V20.375H108.438V26.6875H99.5625V61H84.0312V26.6875H78.1875V20.375H84.0312ZM117.5 61V20.375H130.031L131.781 26.7812C131.99 25.7396 132.312 24.8229 132.75 24.0312C133.188 23.2396 133.688 22.5625 134.25 22C134.833 21.4167 135.458 20.9375 136.125 20.5625C136.792 20.1875 137.458 19.8958 138.125 19.6875C138.792 19.4583 139.438 19.3021 140.062 19.2188C140.688 19.1146 141.24 19.0521 141.719 19.0312V31.3438L133.031 33.8438V61H117.5ZM164.125 53.5938H171.5V27.875H164.125V53.5938ZM168 62.2188C164.875 62.2188 162.219 62.0312 160.031 61.6562C157.865 61.2812 156.062 60.7812 154.625 60.1562C153.188 59.5312 152.062 58.8021 151.25 57.9688C150.458 57.1354 149.865 56.2708 149.469 55.375C149.073 54.4792 148.823 53.5729 148.719 52.6562C148.635 51.7188 148.594 50.8333 148.594 50V31.25C148.594 30.4167 148.635 29.5417 148.719 28.625C148.823 27.6875 149.073 26.7708 149.469 25.875C149.865 24.9583 150.458 24.0938 151.25 23.2812C152.062 22.4479 153.188 21.7188 154.625 21.0938C156.062 20.4688 157.865 19.9688 160.031 19.5938C162.219 19.2188 164.875 19.0312 168 19.0312C171.104 19.0312 173.729 19.2188 175.875 19.5938C178.042 19.9688 179.823 20.4688 181.219 21.0938C182.635 21.7188 183.729 22.4479 184.5 23.2812C185.292 24.0938 185.875 24.9583 186.25 25.875C186.625 26.7708 186.844 27.6875 186.906 28.625C186.99 29.5417 187.031 30.4167 187.031 31.25V50C187.031 50.8333 186.99 51.7188 186.906 52.6562C186.844 53.5729 186.625 54.4792 186.25 55.375C185.875 56.2708 185.292 57.1354 184.5 57.9688C183.729 58.8021 182.635 59.5312 181.219 60.1562C179.823 60.7812 178.042 61.2812 175.875 61.6562C173.729 62.0312 171.104 62.2188 168 62.2188ZM217.062 47.125C216.896 46.9375 216.438 46.7917 215.688 46.6875C214.938 46.5833 214.01 46.4688 212.906 46.3438C211.802 46.1979 210.573 46.0208 209.219 45.8125C207.865 45.6042 206.49 45.3021 205.094 44.9062C203.698 44.5104 202.344 44 201.031 43.375C199.719 42.75 198.552 41.9583 197.531 41C196.51 40.0417 195.688 38.8958 195.062 37.5625C194.458 36.2292 194.156 34.6458 194.156 32.8125C194.156 31.4792 194.26 30.2188 194.469 29.0312C194.677 27.8229 195.042 26.7083 195.562 25.6875C196.104 24.6667 196.844 23.75 197.781 22.9375C198.719 22.1042 199.917 21.4062 201.375 20.8438C202.833 20.2604 204.583 19.8125 206.625 19.5C208.667 19.1875 211.073 19.0312 213.844 19.0312C216.615 19.0729 218.979 19.2292 220.938 19.5C222.896 19.7708 224.531 20.1354 225.844 20.5938C227.177 21.0521 228.229 21.6146 229 22.2812C229.792 22.9479 230.385 23.6979 230.781 24.5312C231.198 25.3646 231.458 26.2917 231.562 27.3125C231.688 28.3125 231.75 29.3854 231.75 30.5312V33.2188L217.062 32.2812V27.875H209.688V33.9062C209.875 34.0938 210.344 34.25 211.094 34.375C211.865 34.5 212.802 34.6458 213.906 34.8125C215.01 34.9583 216.24 35.1458 217.594 35.375C218.948 35.6042 220.312 35.9167 221.688 36.3125C223.083 36.7083 224.427 37.2083 225.719 37.8125C227.031 38.4167 228.198 39.1771 229.219 40.0938C230.24 41.0104 231.052 42.1042 231.656 43.375C232.281 44.6458 232.594 46.1354 232.594 47.8438C232.594 50.1979 232.323 52.2708 231.781 54.0625C231.26 55.8333 230.281 57.3229 228.844 58.5312C227.406 59.7188 225.417 60.6146 222.875 61.2188C220.333 61.8229 217.052 62.125 213.031 62.125C210.323 62.0625 207.99 61.8854 206.031 61.5938C204.094 61.3229 202.458 60.9479 201.125 60.4688C199.792 59.9896 198.729 59.4167 197.938 58.75C197.146 58.0625 196.542 57.3021 196.125 56.4688C195.708 55.6354 195.427 54.7188 195.281 53.7188C195.156 52.7188 195.094 51.6562 195.094 50.5312V48.0938L209.688 49.1875V53.5938H217.062V47.125ZM257.625 61H242.094V26.625H238.25V20.375H242.094V11.1562H257.625V20.375H262.75V26.625H257.625V61ZM283.312 61H269V46.4062H283.312V61ZM328.531 7.5625V61H315.688L314.25 55.7812C313.625 56.8229 312.865 57.75 311.969 58.5625C311.094 59.3542 310.125 60.0208 309.062 60.5625C308 61.0833 306.875 61.4792 305.688 61.75C304.5 62.0208 303.281 62.1562 302.031 62.1562C300.531 62.1562 299.062 61.8958 297.625 61.375C296.188 60.8542 294.906 60.0625 293.781 59C292.677 57.9167 291.781 56.5625 291.094 54.9375C290.427 53.3125 290.094 51.4062 290.094 49.2188V31.1562C290.094 29.0729 290.427 27.2708 291.094 25.75C291.76 24.2083 292.635 22.9375 293.719 21.9375C294.823 20.9375 296.073 20.1979 297.469 19.7188C298.885 19.2396 300.333 19 301.812 19C304.042 19 306.125 19.3854 308.062 20.1562C310.021 20.9271 311.667 22.0521 313 23.5312V7.5625H328.531ZM313 27.875H305.625V53.5938H313V27.875ZM375.5 46.9062C375.5 48.3854 375.448 49.7917 375.344 51.125C375.24 52.4375 374.979 53.6667 374.562 54.8125C374.167 55.9375 373.552 56.9479 372.719 57.8438C371.906 58.7396 370.781 59.5104 369.344 60.1562C367.927 60.7812 366.146 61.2604 364 61.5938C361.875 61.9479 359.281 62.125 356.219 62.125C353.094 62.125 350.448 61.9375 348.281 61.5625C346.135 61.1875 344.354 60.6875 342.938 60.0625C341.521 59.4375 340.417 58.7188 339.625 57.9062C338.833 57.0729 338.25 56.2083 337.875 55.3125C337.5 54.3958 337.271 53.4792 337.188 52.5625C337.125 51.6458 337.094 50.7708 337.094 49.9375V31.1875C337.094 30.3542 337.125 29.4792 337.188 28.5625C337.271 27.6458 337.5 26.7396 337.875 25.8438C338.25 24.9479 338.833 24.0938 339.625 23.2812C340.417 22.4479 341.521 21.7188 342.938 21.0938C344.354 20.4688 346.135 19.9688 348.281 19.5938C350.448 19.2188 353.094 19.0312 356.219 19.0312C359.26 19.0312 361.854 19.2188 364 19.5938C366.146 19.9688 367.927 20.4688 369.344 21.0938C370.781 21.7188 371.906 22.4479 372.719 23.2812C373.552 24.0938 374.177 24.9479 374.594 25.8438C375.01 26.7396 375.271 27.6562 375.375 28.5938C375.479 29.5104 375.531 30.375 375.531 31.1875V42.9062H352.625V53.5938H360V46.9375L375.5 46.9062ZM352.625 37.3438H360V27.875H352.625V37.3438ZM380.938 20.375H397.062L400.156 47.875L403.312 20.375H419.469L409.75 61H390.688L380.938 20.375Z" fill="url(#paint0_linear_2_29)"/>
</g>
<defs>
<linearGradient id="paint0_linear_2_29" x1="11.5" y1="35.5" x2="418.5" y2="54" gradientUnits="userSpaceOnUse">
<stop stop-color="#00FF55"/>
<stop offset="1" stop-color="#00FF55"/>
</linearGradient>
<clipPath id="clip0_2_29">
<rect width="434" height="68" fill="white"/>
</clipPath>
</defs>
</svg>
